<?xml version="1.0" encoding="utf-8"?>
<!-- Generator: Adobe Illustrator 17.0.0, SVG Export Plug-In . SVG Version: 6.00 Build 0)  -->
<!DOCTYPE svg PUBLIC "-//W3C//DTD SVG 1.1//EN" "http://www.w3.org/Graphics/SVG/1.1/DTD/svg11.dtd">
<svg version="1.1" id="Layer_1" xmlns="http://www.w3.org/2000/svg" xmlns:xlink="http://www.w3.org/1999/xlink" x="0px" y="0px"
	 width="12.815px" height="18.082px" viewBox="0 0 12.815 18.082" enable-background="new 0 0 12.815 18.082" xml:space="preserve">
<path fill="#5AB4FF" d="M0.146,12.028l5.907,5.907c0.046,0.046,0.102,0.083,0.163,0.109c0.061,0.025,0.126,0.038,0.191,0.038
	s0.13-0.013,0.191-0.038c0.062-0.025,0.117-0.062,0.163-0.109l5.907-5.907c0.195-0.195,0.195-0.512,0-0.707s-0.512-0.195-0.707,0
	l-5.054,5.054V0.5c0-0.276-0.224-0.5-0.5-0.5s-0.5,0.224-0.5,0.5v15.874L0.853,11.32c-0.195-0.195-0.512-0.195-0.707,0
	C-0.049,11.516-0.049,11.833,0.146,12.028z"/>
</svg>
